<?xml version="1.0"?>
<svg width="56" height="14" xmlns="http://www.w3.org/2000/svg" xmlns:svg="http://www.w3.org/2000/svg" class="lazy-loaded" preserveAspectRatio="xMinYMin meet" version="1.1">
 <g class="layer">
  <title>Layer 1</title>
  <g class="linkedin-text" id="svg_4">
   <path d="m40,12l-1.89,0l0,-0.9l-0.03,0c-0.23,0.42 -0.95,0.96 -1.91,0.96c-2,0 -3.17,-1.54 -3.17,-3.56c0,-2.02 1.29,-3.56 3.2,-3.56c0.77,0 1.49,0.39 1.77,0.76l0.03,0l0,-3.7l2,0l0,10zm-3.52,-5.25c-0.96,0 -1.6,0.74 -1.6,1.75c0,1.01 0.65,1.75 1.6,1.75c0.94,0 1.65,-0.64 1.65,-1.75c0,-1.09 -0.7,-1.75 -1.65,-1.75l0,0z" id="svg_5"/>
   <path d="m31.76,10.82c-0.66,0.77 -1.83,1.24 -3.26,1.24c-2.16,0 -3.5,-1.37 -3.5,-3.61c0,-2.06 1.43,-3.51 3.66,-3.51c2.02,0 3.34,1.41 3.34,3.71c0,0.2 -0.03,0.35 -0.03,0.35l-5.15,0l0.01,0.15c0.12,0.67 0.77,1.43 1.81,1.43c1.01,0 1.57,-0.42 1.83,-0.72l1.29,0.96zm-1.53,-2.92c0,-0.84 -0.65,-1.47 -1.58,-1.47c-1.04,0 -1.71,0.63 -1.78,1.47l3.36,0z" id="svg_6"/>
   <polygon id="svg_7" points="18 2 20 2 20 7.882 22.546 5 25 5 21.9 8.199 24.889 12 22.546 12 20 8.515 20 12 18 12"/>
   <path d="m10,5l1.85,0l0,0.91l0.04,0c0.39,-0.48 1.14,-0.97 2.25,-0.97c2.13,0 2.86,1.15 2.86,3.35l0,3.71l-2,0l0,-3.27c0,-0.79 -0.18,-1.98 -1.34,-1.98c-1.18,0 -1.66,1.09 -1.66,1.98l0,3.27l-2,0l0,-7z" id="svg_8"/>
   <path d="m7,12l2,0l0,-7l-2,0l0,7zm1,-10.25c0.66,0 1.25,0.59 1.25,1.25c0,0.66 -0.59,1.25 -1.25,1.25c-0.66,0 -1.25,-0.59 -1.25,-1.25c0,-0.66 0.59,-1.25 1.25,-1.25l0,0z" id="svg_9"/>
   <polygon id="svg_10" points="0 2 2 2 2 10 6 10 6 12 0 12"/>
  </g>
  <rect height="12" id="svg_11" rx="2" ry="2" stroke="#0866C2" width="12" x="42.61" y="1"/>
  <text fill="#ffffff" font-family="Fantasy" font-size="21" id="svg_12" stroke="#0866C2" stroke-width="0" text-anchor="middle" x="48.91" xml:space="preserve" y="11.4">x</text>
 </g>
</svg>