<?xml version="1.0" encoding="utf-8"?>
<!-- Generator: Adobe Illustrator 24.1.1, SVG Export Plug-In . SVG Version: 6.00 Build 0)  -->
<svg version="1.1" id="Layer_1" xmlns="http://www.w3.org/2000/svg" xmlns:xlink="http://www.w3.org/1999/xlink" x="0px" y="0px"
	 viewBox="0 0 512 512" style="enable-background:new 0 0 512 512;" xml:space="preserve">
<g>
	<path fill="#0f6d70" d="M102.4,51.2c-28.28,0-51.2,22.92-51.2,51.2v307.2c0,28.3,22.92,51.2,51.2,51.2h307.2c28.3,0,51.2-22.9,51.2-51.2V102.4
		c0-28.28-22.9-51.2-51.2-51.2H102.4z M102.4,0h307.2C466.17,0,512,45.85,512,102.4v307.2c0,56.57-45.83,102.4-102.4,102.4H102.4
		C45.85,512,0,466.17,0,409.6V102.4C0,45.85,45.85,0,102.4,0z M281.6,281.6V384c0,14.15-11.45,25.6-25.6,25.6
		c-14.13,0-25.6-11.45-25.6-25.6V281.6H128c-14.13,0-25.6-11.45-25.6-25.6c0-14.13,11.47-25.6,25.6-25.6h102.4V128
		c0-14.13,11.48-25.6,25.6-25.6c14.15,0,25.6,11.47,25.6,25.6v102.4H384c14.15,0,25.6,11.48,25.6,25.6c0,14.15-11.45,25.6-25.6,25.6
		H281.6z"/>
</g>
</svg>
