<svg xmlns="http://www.w3.org/2000/svg" width="3000" height="1688" fill="none"><path fill="#ECECF0" d="M0 0h3000v1688H0z"/><path d="M1035.24 1034h11.97v-72.394h-11.97V1034Zm40.02-52.594h-10.72V1034h11.34v-28.98c0-8.764 4.64-15.261 11.76-15.261 6.8 0 9.79 4.229 9.79 12.791V1034h11.45v-28.98c0-8.764 4.54-15.261 11.65-15.261 6.81 0 9.9 4.229 9.9 12.791V1034h11.35v-33.93c0-12.889-6.29-19.695-17.23-19.695-8.04 0-12.78 3.713-16.08 8.559-.21.31-.52.619-.93.619-.41 0-.62-.206-.83-.515-3.61-5.879-7.83-8.663-14.95-8.663-6.91 0-11.24 3.3-14.54 7.941-.31.412-.62.825-1.13.825-.52 0-.83-.413-.83-1.032v-6.703Zm113.88 31.144c0 8.97-7.01 13.92-14.44 13.92-5.26 0-8.14-2.89-8.14-7.11 0-4.64 2.78-7.43 10.31-8.87l5.05-.93c3.51-.62 5.88-1.13 7.22-2.37v5.36Zm10.93 21.45v-34.856c0-13.097-8.45-18.769-21.45-18.769-12.58 0-21.34 5.775-21.76 16.809H1168c.1-5.568 4.54-8.353 10.62-8.353 6.4 0 10.21 2.888 10.21 7.838 0 2.99-2.16 4.121-7.84 5.161l-6.39 1.13c-11.96 2.17-19.49 6.81-19.49 16.91 0 9.7 7.12 15.06 16.81 15.06 6.39 0 11.55-2.37 15.36-6.7.62-.73.83-.93 1.35-.93.51 0 .82.41.82 1.13v5.57h10.62Zm49.65-27.64c0 10.62-4.33 17.12-12.68 17.12-8.25 0-12.27-6.5-12.27-17.12 0-10.619 4.02-17.116 12.37-17.116 8.25 0 12.58 6.497 12.58 17.116Zm-2.57 20.52c.62-.72.92-.92 1.34-.92.41 0 .82.31.82 1.03v2.58c0 10.62-5.26 13.92-13.09 13.92-6.5 0-11.25-2.79-13.31-7.02l-8.97 5.16c2.37 5.26 8.66 10.93 22.38 10.93 16.29 0 24.34-7.94 24.34-25.26v-45.894h-10.73v5.26c0 .618-.31 1.031-.82 1.031-.42 0-.83-.309-1.24-.825-3.4-4.022-7.63-6.497-13.51-6.497-13.51 0-21.55 10.209-21.55 25.985 0 16.19 8.14 25.78 21.45 25.78 5.36 0 9.59-1.75 12.89-5.26Zm26.98-19.18c0 17.64 9.8 27.23 24.54 27.23 11.86 0 21.14-5.36 22.18-16.3h-11.25c-.61 4.03-4.22 7.53-10.93 7.53-8.66 0-12.68-6.8-12.78-15.57h35.78c.1-1.44.1-2.68.1-4.12 0-16.917-8.45-26.095-23.1-26.095-15.26 0-24.54 9.9-24.54 27.325Zm11.86-5.15c.82-8.562 5.16-13.409 12.68-13.409 6.91 0 11.66 4.228 11.66 11.959 0 1.03-.62 1.45-1.34 1.45h-23Zm83.29 5.15c0-11.031 3.71-18.353 12.78-18.353 6.71 0 10.63 3.919 10.63 9.797h11.65c0-11.035-8.56-18.769-22.28-18.769-15.46 0-24.75 10.003-24.75 27.325 0 17.23 9.29 27.23 24.75 27.23 13.72 0 22.28-7.63 22.28-18.56h-11.65c0 5.77-3.92 9.59-10.63 9.59-9.07 0-12.78-7.33-12.78-18.26Zm69.89 27.23c15.36 0 24.75-10 24.75-27.23 0-17.322-9.39-27.325-24.75-27.325-15.27 0-24.75 10.003-24.75 27.325 0 17.23 9.48 27.23 24.75 27.23Zm0-8.97c-9.08 0-12.79-7.43-12.79-18.26 0-10.928 3.71-18.353 12.79-18.353 9.07 0 12.78 7.425 12.78 18.353 0 10.83-3.71 18.26-12.78 18.26Zm48.99-44.554h-10.72V1034h11.34v-28.98c0-8.764 4.64-15.261 11.76-15.261 6.8 0 9.8 4.229 9.8 12.791V1034h11.44v-28.98c0-8.764 4.54-15.261 11.66-15.261 6.8 0 9.9 4.229 9.9 12.791V1034h11.34v-33.93c0-12.889-6.29-19.695-17.22-19.695-8.05 0-12.79 3.713-16.09 8.559-.21.31-.52.619-.93.619-.41 0-.62-.206-.82-.515-3.61-5.879-7.84-8.663-14.96-8.663-6.91 0-11.24 3.3-14.54 7.941-.31.412-.62.825-1.13.825-.52 0-.83-.413-.83-1.032v-6.703Zm82.53 0V1034h11.35v-52.594h-11.35Zm-1.44-15.159c0 3.816 3.09 6.909 7.01 6.909 4.02 0 7.12-3.093 7.12-6.909 0-4.022-3.1-7.116-7.12-7.116-3.92 0-7.01 3.094-7.01 7.116Zm42.33 22.069c-.31.412-.62.825-1.14.825-.51 0-.82-.413-.82-1.032v-6.703h-10.73V1034h11.35v-28.98c0-8.867 4.74-15.261 12.16-15.261 7.02 0 10.42 3.919 10.42 12.791V1034h11.45v-34.134c0-12.066-5.67-19.491-17.12-19.491-7.74 0-12.27 3.506-15.57 7.941Zm82.57 18.044c0 10.62-4.33 17.12-12.69 17.12-8.25 0-12.27-6.5-12.27-17.12 0-10.619 4.02-17.116 12.38-17.116 8.25 0 12.58 6.497 12.58 17.116Zm-2.58 20.52c.62-.72.93-.92 1.34-.92.41 0 .83.31.83 1.03v2.58c0 10.62-5.26 13.92-13.1 13.92-6.5 0-11.24-2.79-13.3-7.02l-8.98 5.16c2.38 5.26 8.67 10.93 22.38 10.93 16.3 0 24.34-7.94 24.34-25.26v-45.894h-10.72v5.26c0 .618-.31 1.031-.83 1.031-.41 0-.82-.309-1.24-.825-3.4-4.022-7.63-6.497-13.51-6.497-13.51 0-21.55 10.209-21.55 25.985 0 16.19 8.15 25.78 21.45 25.78 5.36 0 9.59-1.75 12.89-5.26Zm74.43-46.505c-11.96 0-20.31 6.291-20.31 16.191 0 8.144 5.46 12.994 14.95 14.744l8.04 1.45c5.37 1.03 7.84 2.78 7.84 6.49 0 4.54-3.4 7.53-10 7.53-7.32 0-10.62-3.5-10.73-7.94h-11.03c0 9.9 7.32 16.19 21.55 16.19 13.41 0 21.04-6.6 21.04-16.91 0-8.87-5.47-12.99-14.85-14.75l-8.05-1.54c-5.77-1.04-7.83-3.099-7.83-6.296 0-4.228 3.81-6.806 9.28-6.806 5.57 0 9.69 2.475 9.69 7.013h10.83c0-10.519-9.18-15.366-20.42-15.366Zm56.96 54.555c15.37 0 24.75-10 24.75-27.23 0-17.322-9.38-27.325-24.75-27.325-15.26 0-24.75 10.003-24.75 27.325 0 17.23 9.49 27.23 24.75 27.23Zm0-8.97c-9.07 0-12.78-7.43-12.78-18.26 0-10.928 3.71-18.353 12.78-18.353 9.08 0 12.79 7.425 12.79 18.353 0 10.83-3.71 18.26-12.79 18.26Zm59.62 8.97c15.37 0 24.75-10 24.75-27.23 0-17.322-9.38-27.325-24.75-27.325-15.26 0-24.75 10.003-24.75 27.325 0 17.23 9.49 27.23 24.75 27.23Zm0-8.97c-9.07 0-12.78-7.43-12.78-18.26 0-10.928 3.71-18.353 12.78-18.353 9.08 0 12.79 7.425 12.79 18.353 0 10.83-3.71 18.26-12.79 18.26Zm50.96-37.644c-.31.412-.62.825-1.13.825-.52 0-.83-.413-.83-1.032v-6.703h-10.72V1034h11.34v-28.98c0-8.867 4.74-15.261 12.17-15.261 7.01 0 10.41 3.919 10.41 12.791V1034h11.45v-34.134c0-12.066-5.67-19.491-17.12-19.491-7.73 0-12.27 3.506-15.57 7.941Z" fill="#000" fill-opacity=".2"/><g opacity=".2" clip-path="url(#a)"><path stroke="#000" stroke-width="17.188" d="M1308.59 580.594h382.812v282.812H1308.59z"/><ellipse cx="1431.77" cy="670.066" rx="23.496" ry="23.438" fill="#000"/><path fill="#000" d="m1252.09 835.848 114.135-113.85 159.255 158.857-114.135 113.85z"/><path fill="#000" d="m1436.4 805.43 131.382-131.053 169.84 169.414-131.383 131.054z"/></g><defs><clipPath id="a"><path fill="#fff" transform="translate(1300 572)" d="M0 0h400v300H0z"/></clipPath></defs></svg>