<?xml version="1.0"?>
<svg width="84" height="21" xmlns="http://www.w3.org/2000/svg" xmlns:svg="http://www.w3.org/2000/svg" preserveAspectRatio="xMinYMin meet" version="1.1">
 <g class="layer">
  <title>Layer 1</title>
  <g id="svg_4" transform="matrix(1 0 0 1 0 0)">
   <path d="m60,18l-2.8,0l0,-1.19l-0.03,0c-0.62,0.72 -1.7,1.32 -3.54,1.32c-2.5,0 -4.65,-1.89 -4.65,-5.12c0,-3.08 2.12,-5.13 4.75,-5.13c1.62,0 2.63,0.57 3.24,1.31l0.03,0l0,-6.19l3,0l0,15zm-5.52,-7.87c-1.72,0 -2.68,1.22 -2.68,2.84c0,1.63 0.96,2.91 2.68,2.91c1.72,0 2.72,-1.25 2.72,-2.91c0,-1.7 -1,-2.84 -2.72,-2.84l0,0z" fill="#0866c2" id="svg_5"/>
   <path d="m47.66,16.39c-0.71,0.92 -2.16,1.73 -4.52,1.73c-3.14,0 -5.14,-2.07 -5.14,-5.34c0,-2.91 1.81,-4.91 5.23,-4.91c2.95,0 4.77,1.94 4.77,5.35c0,0.34 -0.05,0.68 -0.05,0.68l-7.12,0l0.02,0.31c0.2,0.86 0.85,1.91 2.34,1.91c1.3,0 2.2,-0.7 2.6,-1.25l1.87,1.52zm-2.55,-4.39c0.02,-1.06 -0.75,-2.13 -1.97,-2.13c-1.45,0 -2.23,1.14 -2.31,2.13l4.28,0z" fill="#0866c2" id="svg_6"/>
   <polygon fill="#0866c2" id="svg_7" points="38 8 34.5 8 31 12 31 3 28 3 28 18 31 18 31 13 34.699 18 38.241 18 34 12.533"/>
   <path d="m16,8l2.83,0l0,1.44l0.03,0c0.43,-0.78 1.7,-1.56 3.28,-1.56c3.02,0 3.86,1.91 3.86,4.57l0,5.55l-3,0l0,-5c0,-1.47 -0.53,-2.5 -1.77,-2.5c-1.51,0 -2.23,1.19 -2.23,2.7l0,4.8l-3,0l0,-10z" fill="#0866c2" id="svg_8"/>
   <path d="m11,18l3,0l0,-10l-3,0l0,10zm1.5,-11.7c0.99,0 1.8,-0.81 1.8,-1.8c0,-0.99 -0.81,-1.8 -1.8,-1.8c-0.99,0 -1.8,0.81 -1.8,1.8c0,0.99 0.81,1.8 1.8,1.8z" fill="#0866c2" id="svg_9"/>
   <polygon fill="#0866c2" id="svg_10" points="3 3 0 3 0 18 9 18 9 15 3 15"/>
  </g>
  <rect fill="#0866c2" height="20" id="svg_11" rx="3" ry="3" width="20" x="63.32" y="0.51"/>
  <text fill="#ffffff" font-family="Fantasy" font-size="28" id="svg_12" stroke-width="0" text-anchor="middle" x="73.63" xml:space="preserve" y="16.28">x</text>
 </g>
</svg>