<?xml version="1.0" encoding="utf-8"?>
<!-- Generator: Adobe Illustrator 20.1.0, SVG Export Plug-In . SVG Version: 6.00 Build 0)  -->
<svg version="1.0" id="Layer_1" xmlns="http://www.w3.org/2000/svg" xmlns:xlink="http://www.w3.org/1999/xlink" x="0px" y="0px"
	 viewBox="0 0 133 80" style="enable-background:new 0 0 133 80;" xml:space="preserve">
<style type="text/css">
	.st0{fill:#E52427;}
	.st1{fill:#0019A8;}
	.st2{fill:#FFFFFF;}
</style>
<g id="Layer_1_2_">
	<g id="Layer_1_1_">
	</g>
</g>
<g>
	<g>
		<path class="st0" d="M100.9,32.7h8.9V47h-8.9c-3.8,16.9-17.8,28.3-34.7,28.3S35.3,63.8,31.5,47h-9V32.7h9
			C35.4,15.8,49.3,4.4,66.2,4.4S97.1,15.8,100.9,32.7L100.9,32.7z M44.5,47c3.5,9.7,11.8,15.7,21.7,15.7s18.3-6,21.7-15.7H44.5
			L44.5,47z M87.9,32.7C84.5,23,76.2,17,66.2,17c-9.9,0-18.3,6-21.7,15.7H87.9L87.9,32.7z"/>
	</g>
	<g>
		<polygon class="st1" points="111,32.5 111,47.2 21.4,47.2 21.4,32.5 		"/>
	</g>
	<g>
		<path class="st2" d="M33.5,40.2c0,2.2-1.4,3.7-3.5,3.7c-2,0-3.4-1.5-3.4-3.6v-4.2h1.5v4.2c0,1.3,0.8,2.2,2,2.2s1.9-0.8,1.9-2.2
			v-4.2h1.5V40.2L33.5,40.2z"/>
	</g>
	<g>
		<polygon class="st2" points="41.5,43.8 41.5,36.1 40,36.1 40,41.4 35.9,36.1 34.4,36.1 34.4,43.8 35.9,43.8 35.9,38.5 40,43.8 		
			"/>
	</g>
	<g>
		<polygon class="st2" points="54.9,43.8 54.9,42.4 51.3,42.4 51.3,40.4 53.9,40.4 53.9,39 51.3,39 51.3,37.4 54.6,37.4 54.6,36.1 
			49.8,36.1 49.8,43.8 		"/>
	</g>
	<g>
		<path class="st2" d="M67.9,43.1v-3.7h-2.7v1.3h1.2v1.6c-0.5,0.1-0.7,0.2-1.1,0.2c-1.7,0-2.9-1.1-2.9-2.6s1.2-2.6,2.8-2.6
			c0.9,0,1.8,0.3,2.6,0.8v-1.6c-1.2-0.5-1.8-0.7-2.7-0.7c-2.4,0-4.2,1.7-4.2,4s1.8,4,4.4,4C66.3,43.8,66.6,43.7,67.9,43.1L67.9,43.1
			L67.9,43.1z"/>
	</g>
	<g>
		<path class="st2" d="M90,36.1h-1.5v4.2c0,1.4-0.7,2.2-1.9,2.2c-1.2,0-2-0.9-2-2.2v-4.2h-1.5v4.2c0,2.1,1.4,3.6,3.4,3.6
			c2.1,0,3.4-1.5,3.4-3.7L90,36.1L90,36.1z"/>
	</g>
	<g>
		<polygon class="st2" points="97.9,43.8 97.9,36.1 96.5,36.1 96.5,41.4 92.4,36.1 90.9,36.1 90.9,43.8 92.4,43.8 92.4,38.5 
			96.5,43.8 		"/>
	</g>
	<g>
		<path class="st2" d="M42.5,36.1h2.4c2.7,0,4.3,1.4,4.3,3.7c0,2.4-1.8,3.9-4.7,3.9h-2V36.1L42.5,36.1z M44.7,42.4c1.8,0,3-1,3-2.5
			s-1.1-2.5-2.8-2.5H44v5H44.7L44.7,42.4z"/>
	</g>
	<g>
		<path class="st2" d="M59.8,43.8l-2.2-3.1h-0.7v3.1h-1.5v-7.7h2.3c1.7,0,2.7,0.8,2.7,2.2c0,1-0.5,1.7-1.4,2l2.5,3.4L59.8,43.8
			L59.8,43.8z M57.6,39.4c0.9,0,1.4-0.4,1.4-1s-0.5-1-1.3-1h-0.9v2H57.6L57.6,39.4z"/>
	</g>
	<g>
		<path class="st2" d="M73.1,43.8L71,40.7h-0.7v3.1h-1.5v-7.7h2.3c1.7,0,2.7,0.8,2.7,2.2c0,1-0.5,1.7-1.4,2l2.5,3.4L73.1,43.8
			L73.1,43.8z M71,39.4c0.9,0,1.4-0.4,1.4-1s-0.5-1-1.3-1h-0.8v2H71L71,39.4z"/>
	</g>
	<g>
		<path class="st2" d="M78.4,43.9c-2.2,0-4-1.8-4-4s1.8-4,4-4c2.3,0,4,1.8,4,4C82.4,42.2,80.6,43.9,78.4,43.9L78.4,43.9z M78.4,37.4
			c-1.4,0-2.5,1.1-2.5,2.5s1.1,2.5,2.6,2.5c1.4,0,2.5-1.1,2.5-2.4C80.9,38.5,79.8,37.4,78.4,37.4L78.4,37.4z"/>
	</g>
	<g>
		<path class="st2" d="M98.9,36.1h2.4c2.7,0,4.3,1.4,4.3,3.7c0,2.4-1.8,3.9-4.7,3.9h-2L98.9,36.1L98.9,36.1z M101.1,42.4
			c1.8,0,3-1,3-2.5s-1.1-2.5-2.8-2.5h-0.9v5H101.1L101.1,42.4z"/>
	</g>
</g>
</svg>
